<mxfile host="app.diagrams.net" modified="2024-06-14T18:02:01.496Z" agent="Mozilla/5.0 (Windows NT 10.0; Win64; x64) AppleWebKit/537.36 (KHTML, like Gecko) Chrome/125.0.0.0 Safari/537.36 Edg/125.0.0.0" etag="3gdTP3iYahCtXf2QddTA" version="24.5.4" type="device">
  <diagram name="Page-1" id="1p04JAhZPV0rcZdiKZ7J">
    <mxGraphModel dx="1459" dy="799" grid="1" gridSize="10" guides="1" tooltips="1" connect="1" arrows="1" fold="1" page="1" pageScale="1" pageWidth="850" pageHeight="1100" math="0" shadow="0">
      <root>
        <mxCell id="0" />
        <mxCell id="1" parent="0" />
        <UserObject label="" plantUmlData="{&#xa;  &quot;data&quot;: &quot;@startuml\ndigraph dfd {\n  node[shape=record]\n  \n  // External Entities\n  user [label=\&quot;User\&quot; shape=box]\n  shelter [label=\&quot;Shelter\&quot; shape=box]\n  admin [label=\&quot;Admin\&quot; shape=box]\n  \n  // Processes\n  create_profile [label=\&quot;{Create Profile\\nProfile Data}\&quot; shape=Mrecord]\n  search_animals [label=\&quot;{Search Animals\\nSearch Criteria}\&quot; shape=Mrecord]\n  view_shelter_profile [label=\&quot;{View Shelter Profile\\nShelter ID}\&quot; shape=Mrecord]\n  access_resources [label=\&quot;{Access Adoption Resources\\nResource Request}\&quot; shape=Mrecord]\n  donate_volunteer [label=\&quot;{Donate/Volunteer\\nDonation/Volunteer Data}\&quot; shape=Mrecord]\n  engage_community [label=\&quot;{Engage with Community\\nCommunity Engagement Data}\&quot; shape=Mrecord]\n  manage_shelter_profile [label=\&quot;{Manage Shelter Profile\\nShelter Profile Data}\&quot; shape=Mrecord]\n  manage_content [label=\&quot;{Manage Platform Content\\nContent Data}\&quot; shape=Mrecord]\n  view_analytics [label=\&quot;{View Platform Analytics\\nAnalytics Request}\&quot; shape=Mrecord]\n  \n  // Data Stores\n  user_profiles [label=\&quot;User Profiles (DS)\&quot; shape=folder]\n  comprehensive_search_data [label=\&quot;Comprehensive Search Data (DS)\&quot; shape=folder]\n  shelter_profiles [label=\&quot;Shelter Profiles (DS)\&quot; shape=folder]\n  adoption_resources_data [label=\&quot;Adoption Resources Data (DS)\&quot; shape=folder]\n  donation_volunteer_opportunities_data [label=\&quot;Donation and Volunteer Opportunities Data (DS)\&quot; shape=folder]\n  community_engagement_data [label=\&quot;Community Engagement Data (DS)\&quot; shape=folder]\n  platform_analytics_data [label=\&quot;Platform Analytics Data (DS)\&quot; shape=folder]\n  \n  // Data Flows\n  user -&gt; create_profile: Profile Data\n  create_profile -&gt; user_profiles: Profile Data\n  user -&gt; search_animals: Search Criteria\n  search_animals -&gt; comprehensive_search_data: Search Results\n  user -&gt; view_shelter_profile: Shelter ID\n  view_shelter_profile -&gt; shelter_profiles: Shelter Profile\n  user -&gt; access_resources: Resource Request\n  access_resources -&gt; adoption_resources_data: Resource Data\n  user -&gt; donate_volunteer: Donation/Volunteer Data\n  donate_volunteer -&gt; donation_volunteer_opportunities_data: Donation/Volunteer Data\n  user -&gt; engage_community: Community Engagement Data\n  engage_community -&gt; community_engagement_data: Community Engagement Data\n  shelter -&gt; manage_shelter_profile: Shelter Profile Data\n  manage_shelter_profile -&gt; shelter_profiles: Shelter Profile Data\n  admin -&gt; manage_shelter_profile: Shelter Profile Data\n  manage_shelter_profile -&gt; shelter_profiles: Shelter Profile Data\n  admin -&gt; manage_content: Content Data\n  manage_content -&gt; adoption_resources_data: Content Data\n  admin -&gt; view_analytics: Analytics Request\n  view_analytics -&gt; platform_analytics_data: Analytics Data\n}\n@enduml&quot;,&#xa;  &quot;format&quot;: &quot;svg&quot;&#xa;}" id="_EGmGTeUfMACUm2oToK7-156">
          <mxCell style="shape=image;noLabel=1;verticalAlign=top;aspect=fixed;imageAspect=0;image=data:image/svg+xml,PD94bWwgdmVyc2lvbj0iMS4wIiBlbmNvZGluZz0idXMtYXNjaWkiIHN0YW5kYWxvbmU9Im5vIj8+PHN2ZyB4bWxucz0iaHR0cDovL3d3dy53My5vcmcvMjAwMC9zdmciIHhtbG5zOnhsaW5rPSJodHRwOi8vd3d3LnczLm9yZy8xOTk5L3hsaW5rIiBjb250ZW50U3R5bGVUeXBlPSJ0ZXh0L2NzcyIgaGVpZ2h0PSIyMnB4IiBwcmVzZXJ2ZUFzcGVjdFJhdGlvPSJub25lIiBzdHlsZT0id2lkdGg6MTQ3cHg7aGVpZ2h0OjIycHg7YmFja2dyb3VuZDojRkZGRkZGOyIgdmVyc2lvbj0iMS4xIiB2aWV3Qm94PSIwIDAgMTQ3IDIyIiB3aWR0aD0iMTQ3cHgiIHpvb21BbmRQYW49Im1hZ25pZnkiPjxkZWZzLz48Zz48dGV4dCBmaWxsPSIjMzNGRjAyIiBmb250LWZhbWlseT0ic2Fucy1zZXJpZiIgZm9udC1zaXplPSIxNCIgZm9udC13ZWlnaHQ9ImJvbGQiIGxlbmd0aEFkanVzdD0ic3BhY2luZyIgdGV4dExlbmd0aD0iMTQwIiB4PSI1IiB5PSIxOSI+R3JhcGhWaXogaGFzIGNyYXNoZWQ8L3RleHQ+PC9nPjwvc3ZnPg==;" vertex="1" parent="1">
            <mxGeometry x="360" y="550" width="147" height="22" as="geometry" />
          </mxCell>
        </UserObject>
      </root>
    </mxGraphModel>
  </diagram>
</mxfile>
